<svg width="56" height="48" viewBox="0 0 56 48" fill="none" xmlns="http://www.w3.org/2000/svg">
<path d="M55.7226 47.9942C55.7226 47.9942 54.8692 47.6633 53.3946 47.0421C52.6631 46.6996 51.74 46.4325 50.7066 46.0493C49.6849 45.6488 48.4831 45.3295 47.1943 44.9405C46.875 44.8418 46.5441 44.7431 46.2074 44.6444C45.8648 44.5631 45.5223 44.4819 45.1682 44.4006C44.4657 44.2322 43.74 44.0522 42.9911 43.8723C42.2422 43.7039 41.4642 43.5878 40.6747 43.4427C39.8851 43.3033 39.084 43.1292 38.2538 43.0479C37.4294 42.9434 36.5876 42.8273 35.74 42.717C34.8924 42.6241 34.0216 42.5835 33.1565 42.508C32.7211 42.4731 32.2857 42.4383 31.8503 42.4035C31.4149 42.3803 30.9737 42.3803 30.5325 42.3687C29.65 42.3454 28.7676 42.3222 27.8793 42.299C26.9911 42.3222 26.1028 42.3454 25.2146 42.3687C24.7676 42.3861 24.3206 42.3861 23.8793 42.4093C23.4439 42.4441 23.0085 42.479 22.5789 42.5138C21.7139 42.5893 20.8547 42.6357 20.0071 42.7228C19.1595 42.8331 18.3177 42.9434 17.4933 43.0537C16.6631 43.135 15.8619 43.3149 15.0724 43.4485C14.2828 43.5994 13.5049 43.7097 12.756 43.8781C12.0071 44.0581 11.2814 44.2322 10.5789 44.4064C10.2248 44.4877 9.88224 44.5689 9.53971 44.6502C9.20299 44.7489 8.87788 44.8476 8.55277 44.9463C7.26395 45.3353 6.06801 45.6546 5.04044 46.0552C4.00705 46.4383 3.07817 46.7112 2.35829 47.0479C0.889491 47.6633 0.0302734 48 0.0302734 48C0.0302734 48 0.814018 47.4949 2.20734 46.6473C2.8982 46.1945 3.78064 45.7765 4.7908 45.2656C5.04624 45.1379 5.30168 45.0102 5.57454 44.8766C5.70807 44.807 5.8474 44.7431 5.98093 44.6734C6.12026 44.6154 6.2654 44.5515 6.41053 44.4935C6.99689 44.2554 7.60647 44.0058 8.24508 43.7446C8.56438 43.6168 8.8953 43.4833 9.22621 43.344C9.56293 43.2279 9.91126 43.1118 10.2596 42.9956C10.9679 42.7692 11.6936 42.5312 12.4483 42.2932C13.203 42.0668 13.9867 41.8926 14.7879 41.6836C15.5891 41.4804 16.4076 41.2714 17.2494 41.1437C18.0912 40.9986 18.9446 40.8476 19.8155 40.7025C20.6863 40.5747 21.5804 40.5051 22.4744 40.4064C22.9214 40.3599 23.3743 40.3135 23.8271 40.2729C24.2741 40.238 24.7211 40.238 25.1682 40.2148C26.068 40.1858 26.9737 40.1567 27.8793 40.1219C28.785 40.1509 29.6965 40.18 30.6021 40.2148C31.055 40.2322 31.5078 40.238 31.9548 40.2729C32.4018 40.3193 32.8489 40.3657 33.2959 40.4064C34.1841 40.4993 35.0724 40.5747 35.9432 40.7025C36.8082 40.8534 37.6674 40.9985 38.5092 41.1495C39.351 41.2772 40.1696 41.4862 40.9708 41.6952C41.7719 41.9042 42.5557 42.0784 43.3104 42.3048C44.0593 42.5486 44.7908 42.7808 45.4991 43.0073C45.8532 43.1234 46.1957 43.2453 46.5325 43.3556C46.8634 43.4891 47.1943 43.6226 47.5136 43.7562C48.1522 44.0174 48.7676 44.2671 49.3481 44.5051C49.4933 44.5689 49.6384 44.627 49.7777 44.6851C49.9171 44.7547 50.0506 44.8244 50.1899 44.8882C50.457 45.0218 50.724 45.1553 50.9737 45.283C51.9838 45.7939 52.8721 46.2177 53.5571 46.6589C54.9388 47.4833 55.7226 47.9942 55.7226 47.9942Z" fill="#212121"/>
<path d="M19.6236 25.7765V3.25108L14.7005 5.24237V23.7852L15.1708 23.9768L19.6236 25.7765Z" fill="#212121"/>
<path d="M23.9603 27.5298V41.5094C25.1679 41.4282 26.3812 41.3817 27.6062 41.3759V18.7692L28.9008 18.2467L33.731 16.2903L33.9516 16.2032L35.9139 15.4078L39.85 13.8171L40.6164 13.5094V5.24238L27.6643 0L21.9574 2.3106V26.7228L22.6657 27.0073L23.9603 27.5298Z" fill="#212121"/>
<path d="M33.7366 41.643V18.5312L29.6843 20.1684V41.3934C31.0486 41.4282 32.3955 41.5153 33.7366 41.643Z" fill="#212121"/>
<path d="M51.5309 46.09H51.5773V20.1684L40.6281 15.7387L40.6165 15.7446L35.9082 17.6488V41.881C41.3596 42.5951 46.5962 44.0348 51.5309 46.09Z" fill="#212121"/>
<path d="M9.01116 44.4064V28.0755L6.88634 28.9289V45.1379C7.58881 44.8882 8.29708 44.6444 9.01116 44.4064Z" fill="#212121"/>
<path d="M21.8881 41.6778V28.9347L14.7008 26.0261L14.3873 25.9042L11.084 27.2453V43.7736C14.5789 42.7576 18.1899 42.0493 21.8881 41.6778Z" fill="#212121"/>
</svg>
