<svg width="24" height="24" viewBox="0 0 24 24" fill="none" xmlns="http://www.w3.org/2000/svg">
<path d="M3 7.5C3 6.26953 3.98438 5.25 5.25 5.25H18.75C19.9805 5.25 21 6.26953 21 7.5V16.5C21 17.7656 19.9805 18.75 18.75 18.75H5.25C3.98438 18.75 3 17.7656 3 16.5V7.5ZM4.6875 7.5V8.30859L10.7344 13.2656C11.4727 13.8633 12.4922 13.8633 13.2305 13.2656L19.3125 8.30859V7.5C19.3125 7.21875 19.0312 6.9375 18.75 6.9375H5.25C4.93359 6.9375 4.6875 7.21875 4.6875 7.5ZM4.6875 10.4883V16.5C4.6875 16.8164 4.93359 17.0625 5.25 17.0625H18.75C19.0312 17.0625 19.3125 16.8164 19.3125 16.5V10.4883L14.3203 14.5664C12.9492 15.6914 11.0156 15.6914 9.64453 14.5664L4.6875 10.4883Z" fill="white"/>
</svg>
